<svg xmlns="http://www.w3.org/2000/svg" width="43" height="41"><path fill="#8D81AC" d="M43 21c0-.4-.1-.8-.4-1l-3.8-3.8V7.5c0-.1 0-.1-.1-.2v-.4c0-.1 0-.1-.1-.1v-.1c0-.1-.1-.1-.1-.1l-.1-.1s-.1-.1-.2-.1c0 0-.1 0-.1-.1H38s-.1 0-.1-.1c0-.2-.2-.2-.3-.2h-3.2c-.4 0-.7.1-.9.4-.3.2-.5.6-.5.9 0 .7.6 1.3 1.3 1.3h1.8v8.3c.1.4.3.7.6 1l.2.1 2.9 2.9-3.2 3.2c-.2.1-.3.3-.4.5 0 .1 0 .1-.1.2v8.6h-1.8c-.7 0-1.3.6-1.3 1.3 0 .4.1.7.4.9.2.2.6.4.9.4h3.1c.2 0 .3 0 .5-.1l.2-.1h.1s.1-.1.2-.1l.1-.1s.1-.1.1-.2.1-.1.1-.2v-.4c0-.1 0-.2.1-.2v-8.8l3.8-3.8c.3-.3.4-.6.4-1zM28.5 1.1c-.2-.1-.4-.3-.6-.3h-.1L19.3 0h-.2c-.1 0-.1 0-.2.1h-.2l-.2.1c-.1 0-.1.1-.2.1h-.1l-.1.1s-.1.1-.1.2v.1c0 .1 0 .1-.1.1v.3L15 34.8c-.1.4 0 .7.3 1l3.9 4.7v.1c.2.3.6.5 1 .5.3 0 .6-.1.8-.3l4.7-4 .2-.2c.2-.2.2-.5.3-.7l2.3-26v-.6l.6-7c-.1-.5-.2-.9-.6-1.2zm-4.9 33.2l-6-.5L19.7 10l6 .5-2.1 23.8zM25.9 8l-6-.5.4-4.7 6 .5-.4 4.7zM0 21c0-.4.1-.8.4-1l3.8-3.8V7.5c0-.1 0-.1.1-.2v-.4c0-.1 0-.1.1-.1v-.1c0-.1.1-.1.1-.1l.1-.1s.1-.1.2-.1c0 0 .1 0 .1-.1H5s.1 0 .1-.1c0-.2.2-.2.4-.2h3.2c.3 0 .6.1.9.4.3.2.4.6.4.9 0 .7-.6 1.3-1.3 1.3H6.8v8.3c-.1.4-.3.7-.6 1l-.1.1-2.9 2.9 3.2 3.2c.2.1.3.3.4.5 0 .1 0 .1.1.2v8.6h1.8c.7 0 1.3.6 1.3 1.3 0 .4-.1.7-.4.9-.2.3-.6.4-.9.4H5.6c-.2 0-.3 0-.5-.1l-.2-.1h-.1s-.1-.1-.2-.1l-.1-.1s-.1-.1-.1-.2-.1-.1-.1-.2v-.4c0-.1 0-.2-.1-.2v-8.8L.4 22c-.3-.3-.4-.6-.4-1z"/></svg>